<svg width="539" height="569" viewBox="0 0 539 569" fill="none" xmlns="http://www.w3.org/2000/svg">
<path d="M539 284.194C539 441.15 418.341 568.387 269.5 568.387C120.659 568.387 0 441.15 0 284.194C0 127.238 120.659 0 269.5 0C418.341 0 539 127.238 539 284.194Z" fill="#282828"/>
<path d="M495.081 307.35C495.081 451.517 384.254 568.387 247.541 568.387C110.828 568.387 0 451.517 0 307.35C0 163.183 110.828 46.313 247.541 46.313C384.254 46.313 495.081 163.183 495.081 307.35Z" fill="white"/>
<path d="M439.185 336.822C439.185 464.712 340.87 568.387 219.593 568.387C98.3149 568.387 0 464.712 0 336.822C0 208.932 98.3149 105.257 219.593 105.257C340.87 105.257 439.185 208.932 439.185 336.822Z" fill="#FE6A00"/>
</svg>
