<svg width="765" height="187" viewBox="0 0 765 187" fill="none" xmlns="http://www.w3.org/2000/svg">
<g clip-path="url(#clip0_1008_288)">
<path d="M43.6123 123.46L28.4518 93.7598H24.1944V123.46H6.43799V44.7819H36.2397C41.9855 44.7819 46.8659 45.8653 50.881 48.0322C54.9654 50.199 58.0112 53.1878 60.0188 56.9984C62.0264 60.7343 63.0301 64.9185 63.0301 69.5511C63.0301 74.7813 61.6456 79.4513 58.8766 83.5607C56.1768 87.6699 52.1617 90.584 46.8313 92.3028L63.6532 123.46H43.6123ZM24.1944 80.1984H35.2013C38.455 80.1984 40.8778 79.3392 42.4701 77.6206C44.1315 75.9021 44.9622 73.4738 44.9622 70.3356C44.9622 67.3469 44.1315 64.9933 42.4701 63.2747C40.8778 61.5562 38.455 60.6969 35.2013 60.6969H24.1944V80.1984ZM100.552 124.357C94.8754 124.357 89.7524 123.05 85.1835 120.434C80.6838 117.819 77.1187 114.083 74.4881 109.226C71.9268 104.369 70.6461 98.6912 70.6461 92.1907C70.6461 85.7649 71.9613 80.1237 74.5919 75.267C77.2226 70.3356 80.8223 66.5624 85.3912 63.9472C89.9601 61.332 95.0831 60.0245 100.759 60.0245C106.436 60.0245 111.559 61.332 116.127 63.9472C120.696 66.5624 124.296 70.3356 126.927 75.267C129.558 80.1237 130.873 85.7649 130.873 92.1907C130.873 98.6168 129.523 104.295 126.823 109.226C124.192 114.083 120.558 117.819 115.92 120.434C111.351 123.05 106.228 124.357 100.552 124.357ZM100.552 107.769C103.943 107.769 106.817 106.425 109.17 103.735C111.593 101.045 112.805 97.1965 112.805 92.1907C112.805 87.1846 111.628 83.3366 109.274 80.6467C106.99 77.9569 104.151 76.6119 100.759 76.6119C97.2978 76.6119 94.4252 77.9569 92.1407 80.6467C89.8562 83.2619 88.714 87.1098 88.714 92.1907C88.714 97.1965 89.8214 101.045 92.0369 103.735C94.3213 106.425 97.1598 107.769 100.552 107.769ZM214.226 60.2486C221.426 60.2486 227.137 62.6023 231.359 67.3095C235.652 72.0168 237.797 78.5546 237.797 86.9231V123.46H220.145V89.5008C220.145 85.4661 219.141 82.3653 217.133 80.1984C215.195 77.9569 212.496 76.8361 209.034 76.8361C205.572 76.8361 202.839 77.9569 200.831 80.1984C198.893 82.3653 197.923 85.4661 197.923 89.5008V123.46H180.271V89.5008C180.271 85.4661 179.267 82.3653 177.259 80.1984C175.321 77.9569 172.621 76.8361 169.16 76.8361C165.698 76.8361 162.964 77.9569 160.957 80.1984C159.019 82.3653 158.049 85.4661 158.049 89.5008V123.46H140.293V60.9211H158.049V68.7665C159.849 66.1513 162.203 64.0967 165.11 62.6023C168.018 61.0332 171.306 60.2486 174.975 60.2486C179.336 60.2486 183.213 61.2573 186.605 63.2747C190.066 65.2921 192.766 68.1687 194.704 71.9047C196.712 68.4677 199.446 65.6657 202.907 63.4989C206.369 61.332 210.141 60.2486 214.226 60.2486ZM246.685 92.0786C246.685 85.6528 247.793 80.0116 250.008 75.1549C252.293 70.2982 255.373 66.5624 259.25 63.9472C263.127 61.332 267.453 60.0245 272.23 60.0245C276.314 60.0245 279.879 60.9211 282.925 62.7143C286.04 64.5076 288.428 66.8612 290.09 69.7752V60.9211H307.846V123.46H290.09V114.606C288.36 117.52 285.936 119.874 282.821 121.667C279.775 123.46 276.21 124.357 272.126 124.357C267.418 124.357 263.127 123.05 259.25 120.434C255.373 117.744 252.293 113.971 250.008 109.114C247.793 104.183 246.685 98.5047 246.685 92.0786ZM290.09 92.1907C290.09 87.4088 288.844 83.6354 286.352 80.8709C283.929 78.1063 280.952 76.724 277.422 76.724C273.891 76.724 270.88 78.1063 268.388 80.8709C265.964 83.5607 264.753 87.2967 264.753 92.0786C264.753 96.8603 265.964 100.671 268.388 103.511C270.88 106.275 273.891 107.657 277.422 107.657C280.952 107.657 283.929 106.275 286.352 103.511C288.844 100.746 290.09 96.9724 290.09 92.1907ZM329.622 54.4206C326.507 54.4206 323.946 53.4493 321.938 51.5066C320 49.4892 319.031 47.0235 319.031 44.1095C319.031 41.1208 320 38.6551 321.938 36.7124C323.946 34.695 326.507 33.6863 329.622 33.6863C332.669 33.6863 335.161 34.695 337.099 36.7124C339.107 38.6551 340.11 41.1208 340.11 44.1095C340.11 47.0235 339.107 49.4892 337.099 51.5066C335.161 53.4493 332.669 54.4206 329.622 54.4206ZM338.449 60.9211V123.46H320.692V60.9211H338.449ZM386.622 60.2486C393.406 60.2486 398.806 62.6396 402.821 67.4216C406.905 72.1288 408.947 78.6293 408.947 86.9231V123.46H391.295V89.5008C391.295 85.3166 390.291 82.0663 388.283 79.7501C386.275 77.4339 383.576 76.2757 380.184 76.2757C376.792 76.2757 374.092 77.4339 372.084 79.7501C370.077 82.0663 369.073 85.3166 369.073 89.5008V123.46H351.317V60.9211H369.073V69.2148C370.873 66.4503 373.296 64.2834 376.342 62.7143C379.388 61.0706 382.815 60.2486 386.622 60.2486ZM525.843 44.7819V123.46H508.087V76.2757L491.784 123.46H477.454L461.048 76.1636V123.46H443.291V44.7819H464.267L484.723 99.2516L504.971 44.7819H525.843ZM547.542 54.4206C544.427 54.4206 541.866 53.4493 539.858 51.5066C537.92 49.4892 536.95 47.0235 536.95 44.1095C536.95 41.1208 537.92 38.6551 539.858 36.7124C541.866 34.695 544.427 33.6863 547.542 33.6863C550.588 33.6863 553.08 34.695 555.018 36.7124C557.026 38.6551 558.03 41.1208 558.03 44.1095C558.03 47.0235 557.026 49.4892 555.018 51.5066C553.08 53.4493 550.588 54.4206 547.542 54.4206ZM556.368 60.9211V123.46H538.612V60.9211H556.368ZM586.993 40.523V123.46H569.236V40.523H586.993ZM617.617 40.523V123.46H599.861V40.523H617.617ZM626.954 92.0786C626.954 85.6528 628.062 80.0116 630.277 75.1549C632.562 70.2982 635.642 66.5624 639.519 63.9472C643.396 61.332 647.722 60.0245 652.499 60.0245C656.583 60.0245 660.148 60.9211 663.194 62.7143C666.309 64.5076 668.698 66.8612 670.359 69.7752V60.9211H688.115V123.46H670.359V114.606C668.629 117.52 666.205 119.874 663.09 121.667C660.044 123.46 656.479 124.357 652.395 124.357C647.687 124.357 643.396 123.05 639.519 120.434C635.642 117.744 632.562 113.971 630.277 109.114C628.062 104.183 626.954 98.5047 626.954 92.0786ZM670.359 92.1907C670.359 87.4088 669.113 83.6354 666.621 80.8709C664.198 78.1063 661.221 76.724 657.691 76.724C654.16 76.724 651.149 78.1063 648.657 80.8709C646.234 83.5607 645.022 87.2967 645.022 92.0786C645.022 96.8603 646.234 100.671 648.657 103.511C651.149 106.275 654.16 107.657 657.691 107.657C661.221 107.657 664.198 106.275 666.621 103.511C669.113 100.746 670.359 96.9724 670.359 92.1907ZM736.267 60.2486C743.051 60.2486 748.451 62.6396 752.465 67.4216C756.55 72.1288 758.592 78.6293 758.592 86.9231V123.46H740.939V89.5008C740.939 85.3166 739.936 82.0663 737.928 79.7501C735.92 77.4339 733.22 76.2757 729.829 76.2757C726.437 76.2757 723.737 77.4339 721.729 79.7501C719.721 82.0663 718.718 85.3166 718.718 89.5008V123.46H700.961V60.9211H718.718V69.2148C720.518 66.4503 722.94 64.2834 725.987 62.7143C729.033 61.0706 732.459 60.2486 736.267 60.2486Z" fill="#282828"/>
<path d="M547.587 55.1632C553.86 55.1632 558.945 49.6749 558.945 42.9047C558.945 36.1345 553.86 30.6462 547.587 30.6462C541.315 30.6462 536.23 36.1345 536.23 42.9047C536.23 49.6749 541.315 55.1632 547.587 55.1632Z" fill="#FE6A00"/>
<path d="M329.364 55.1632C335.636 55.1632 340.721 49.6749 340.721 42.9047C340.721 36.1345 335.636 30.6462 329.364 30.6462C323.091 30.6462 318.006 36.1345 318.006 42.9047C318.006 49.6749 323.091 55.1632 329.364 55.1632Z" fill="#FE6A00"/>
</g>
<path d="M639.361 130L628.641 175.48H622.041L632.761 130H639.361ZM663.646 148.96C663.646 150.587 663.272 152.08 662.526 153.44C661.779 154.773 660.632 155.853 659.086 156.68C657.539 157.507 655.619 157.92 653.326 157.92H649.086V168H642.246V139.92H653.326C655.566 139.92 657.459 140.307 659.006 141.08C660.552 141.853 661.712 142.92 662.486 144.28C663.259 145.64 663.646 147.2 663.646 148.96ZM652.806 152.48C654.112 152.48 655.086 152.173 655.726 151.56C656.366 150.947 656.686 150.08 656.686 148.96C656.686 147.84 656.366 146.973 655.726 146.36C655.086 145.747 654.112 145.44 652.806 145.44H649.086V152.48H652.806ZM684.687 163.04H674.207L672.527 168H665.367L675.527 139.92H683.447L693.607 168H686.367L684.687 163.04ZM682.927 157.76L679.447 147.48L676.007 157.76H682.927ZM721.819 168H714.979L703.539 150.68V168H696.699V139.92H703.539L714.979 157.32V139.92H721.819V168ZM733.617 145.4V151.08H742.777V156.36H733.617V162.52H743.977V168H726.777V139.92H743.977V145.4H733.617ZM755.258 162.72H764.218V168H748.418V139.92H755.258V162.72Z" fill="#282828"/>
<defs>
<clipPath id="clip0_1008_288">
<rect width="765" height="168.116" fill="white"/>
</clipPath>
</defs>
</svg>
