<svg width="78" height="26" viewBox="0 0 78 26" fill="none" xmlns="http://www.w3.org/2000/svg">
<path d="M0 15.6H3.8688C4.1184 16.7856 5.2416 17.472 6.7392 17.472C8.1744 17.472 9.1728 17.0352 9.1728 15.912C9.1728 15.1632 8.736 14.664 7.6128 14.4768L3.9936 13.8528C1.4976 13.416 0.2496 12.2304 0.2496 10.1088C0.2496 7.176 3.0576 5.7408 6.4272 5.7408C9.984 5.7408 12.4176 7.3632 12.6048 10.1088H8.8608C8.6736 9.048 7.8 8.4864 6.3648 8.4864C5.1168 8.4864 4.1184 8.8608 4.1184 9.7968C4.1184 10.4208 4.4928 10.8576 5.5536 11.0448L9.1728 11.6064C11.7312 12.0432 13.0416 13.2912 13.0416 15.4752C13.0416 18.72 10.1088 20.2176 6.6768 20.2176C3.2448 20.2176 0.3744 18.6576 0 15.6ZM29.952 12.9792C29.952 16.9728 27.6432 20.28 24.024 20.28C21.9024 20.28 19.9056 19.2816 19.2192 15.7248V25.0224H15.1008V5.928H18.5952L19.032 10.0464C19.9056 6.552 21.9648 5.6784 24.2112 5.6784C27.6432 5.6784 29.952 8.9232 29.952 12.9792ZM25.8336 12.9792C25.8336 10.8576 24.5232 8.9856 22.5264 8.9856C20.4672 8.9856 19.2192 10.7328 19.2192 12.9792C19.2192 15.2256 20.4672 16.9104 22.5264 16.9104C24.5232 16.9104 25.8336 15.1008 25.8336 12.9792ZM37.44 20.0304H33.3216V9.1728H31.2624V5.928H37.44V20.0304ZM33.1344 2.1216C33.1344 0.7488 34.1328 0 35.3808 0C36.6288 0 37.6272 0.6864 37.6272 2.1216C37.6272 3.4944 36.6288 4.1808 35.3808 4.1808C34.0704 4.1808 33.1344 3.4944 33.1344 2.1216ZM49.9824 5.928V9.1728H48.36C45.9264 9.1728 44.616 10.4832 44.616 13.1664V20.0304H40.4976V5.928H43.8672L44.2416 10.296C44.8032 7.0512 46.3632 5.928 48.2976 5.928H49.9824ZM58.032 20.0304H53.9136V9.1728H51.8544V5.928H58.032V20.0304ZM53.7264 2.1216C53.7264 0.7488 54.7248 0 55.9728 0C57.2208 0 58.2192 0.6864 58.2192 2.1216C58.2192 3.4944 57.2208 4.1808 55.9728 4.1808C54.7248 4.1808 53.7264 3.4944 53.7264 2.1216ZM78 16.5984V19.968H75.0672C72.072 19.968 70.5744 18.408 70.5744 15.3504V9.1728H68.5152V5.928H70.5744V2.1216H74.6928V2.9328C74.6928 4.368 73.8192 5.928 71.6352 5.928H78V9.1728H74.7552V14.7888C74.7552 15.9744 75.3792 16.5984 76.5024 16.5984H78Z" fill="black"/>
<path d="M66.5184 20.0304H62.4V9.1728H60.3408V5.928H66.5184V20.0304ZM62.2128 2.1216C62.2128 0.7488 63.2112 0 64.4592 0C65.7072 0 66.7056 0.6864 66.7056 2.1216C66.7056 3.4944 65.7072 4.1808 64.4592 4.1808C63.2112 4.1808 62.2128 3.4944 62.2128 2.1216Z" fill="#3960FF"/>
</svg>
