<svg width="28" height="27" viewBox="0 0 28 27" fill="none" xmlns="http://www.w3.org/2000/svg">
<path d="M17.3412 24.9895C14.9261 25.8023 12.3155 25.828 9.88489 25.063C7.45429 24.298 5.32903 22.7817 3.8149 20.7322C2.30077 18.6827 1.47582 16.2057 1.45877 13.6576C1.44171 11.1095 2.23342 8.62166 3.71997 6.55207C5.20653 4.48247 7.3113 2.93781 9.73144 2.14032C12.1516 1.34283 14.7623 1.33364 17.188 2.11406C19.6137 2.89448 21.7293 4.42428 23.2304 6.48335C24.7315 8.54242 25.5407 11.0246 25.5416 13.5727C25.5027 14.5495 25.3844 15.5214 25.188 16.479" stroke="white" stroke-width="1.5"/>
<path d="M16.3384 22.7515C15.4722 23.7357 14.5225 24.6432 13.5 25.464" stroke="white" stroke-width="1.5"/>
<path d="M13.5 1.39062C16.7504 4.23048 18.7616 8.22863 19.1042 12.5312C19.1745 13.3123 19.1891 14.0974 19.1478 14.8805" stroke="white" stroke-width="1.5"/>
<path d="M13.5 1.39062C11.7364 2.92778 10.3196 4.82213 9.34345 6.94817C8.36727 9.07422 7.854 11.3834 7.83765 13.7228C7.83765 21.5697 11.3639 23.8947 13.4855 25.4641" stroke="white" stroke-width="1.5"/>
<path d="M3.02295 7.63916H24.0351" stroke="white" stroke-width="1.5"/>
<path d="M13.5 1.38574V25.464" stroke="white" stroke-width="1.5"/>
<path d="M3.35229 20.0293H15.9412" stroke="white" stroke-width="1.5"/>
<path d="M1.4585 13.7227L25.5416 13.4272" stroke="white" stroke-width="1.5"/>
<path d="M23.9481 25.6095L26.0939 23.4589L22.2189 19.5839L24.4228 18.1743C24.4549 18.1554 24.4805 18.1271 24.4961 18.0932C24.5118 18.0594 24.5168 18.0215 24.5105 17.9848C24.5042 17.948 24.4869 17.914 24.4609 17.8873C24.4348 17.8606 24.4012 17.8425 24.3646 17.8353L16.9585 16.1012C16.928 16.095 16.8963 16.0964 16.8664 16.1054C16.8365 16.1144 16.8093 16.1307 16.7873 16.1527C16.7652 16.1748 16.7489 16.202 16.7399 16.2319C16.7309 16.2618 16.7295 16.2934 16.7357 16.324L18.3439 23.8706C18.3516 23.9073 18.3701 23.9408 18.3969 23.967C18.4238 23.9931 18.4578 24.0107 18.4947 24.0175C18.5316 24.0242 18.5696 24.0198 18.604 24.0049C18.6384 23.99 18.6675 23.9651 18.6878 23.9336L20.0731 21.7345L23.9481 25.6095Z" stroke="white" stroke-width="1.5"/>
</svg>
