<svg width="48" height="48" viewBox="0 0 48 48" fill="none" xmlns="http://www.w3.org/2000/svg">
<path d="M24.0746 12.6609C33.9567 4.98911 28.8849 0 28.8849 0C29.6397 7.93107 20.7195 9.80374 18.3284 15.2538C16.6968 18.9727 19.4457 22.2289 24.0713 26.3331C23.6624 25.4241 23.0316 24.5409 22.3932 23.6467C20.2154 20.5969 17.9468 17.4198 24.0746 12.6609Z" fill="#E76F00"/>
<path d="M25.6523 28.0155C25.6523 28.0155 28.6253 25.6168 26.2709 22.9512C18.2897 13.9078 35 9.80371 35 9.80371C24.7976 14.7187 26.3207 17.6361 28.8851 21.1803C31.6307 24.9807 25.6523 28.0155 25.6523 28.0155Z" fill="#E76F00"/>
<path d="M34.4055 35.1684C43.5634 30.4887 39.3292 25.9917 36.3738 26.5976C35.6493 26.7458 35.3263 26.8743 35.3263 26.8743C35.3263 26.8743 35.5953 26.46 36.1089 26.2806C41.9557 24.2594 46.4523 32.2424 34.2214 35.4042C34.2214 35.4042 34.3632 35.2797 34.4055 35.1684Z" fill="#5382A1"/>
<path d="M15.3495 29.2454C9.61971 28.493 18.4913 26.4209 18.4913 26.4209C18.4913 26.4209 15.0461 26.1924 10.8089 28.2065C5.79869 30.5898 23.2022 31.6737 32.211 29.3438C33.1476 28.7148 34.4421 28.1697 34.4421 28.1697C34.4421 28.1697 30.7556 28.8171 27.0842 29.1218C22.5918 29.4918 17.7689 29.564 15.3495 29.2454Z" fill="#5382A1"/>
<path d="M17.5297 33.7137C14.3344 33.3888 16.4266 31.8658 16.4266 31.8658C8.15852 34.5643 21.0268 37.6245 32.5799 34.3023C31.3519 33.8766 30.571 33.0979 30.571 33.0979C24.9245 34.1671 21.6616 34.1329 17.5297 33.7137Z" fill="#5382A1"/>
<path d="M18.9217 38.5486C15.729 38.1877 17.5942 37.1211 17.5942 37.1211C10.0889 39.1833 22.1593 43.4437 31.7149 39.4165C30.1498 38.818 29.0292 38.1271 29.0292 38.1271C24.7666 38.9203 22.7896 38.9826 18.9217 38.5486Z" fill="#5382A1"/>
<path d="M38.908 41.0082C38.908 41.0082 40.2883 42.1266 37.3878 42.9918C31.8721 44.6349 14.4314 45.1311 9.58641 43.0573C7.84476 42.3123 11.1108 41.2783 12.1382 41.0613C13.2097 40.8328 13.822 40.8754 13.822 40.8754C11.8851 39.5337 1.30273 43.51 8.44667 44.6488C27.9292 47.7558 43.9615 43.2496 38.908 41.0082Z" fill="#5382A1"/>
<path d="M42 43.4519C41.6803 47.5421 28.1815 48.4025 19.3911 47.8492C13.6565 47.4875 12.5072 46.5838 12.4904 46.5706C17.9788 47.4604 27.2323 47.6224 34.7352 46.2338C41.3854 45.0025 42 43.4519 42 43.4519Z" fill="#5382A1"/>
</svg>
