<svg width="800" height="800" viewBox="0 0 800 800" fill="none" xmlns="http://www.w3.org/2000/svg">
<path d="M399.986 0.78125C179.514 0.78125 0.78125 179.503 0.78125 399.977C0.78125 620.477 179.514 799.219 399.986 799.219C620.484 799.219 799.219 620.477 799.219 399.977C799.219 179.503 620.484 0.78125 399.986 0.78125ZM615.294 231.833C596.809 232.483 584.055 221.444 583.456 204.659C583.267 198.502 584.847 193.147 589.077 186.844C593.191 178.781 594.08 177.845 593.977 174.323C593.594 163.764 577.628 163.367 573.263 163.569C513.334 165.556 497.537 246.425 484.737 312.194L478.473 346.87C512.977 351.919 537.472 345.695 551.144 336.852C570.378 324.37 545.75 311.531 548.842 297.327C552.013 282.85 565.172 275.859 575.628 275.58C590.28 275.197 600.741 290.406 600.409 305.825C599.895 331.328 566.064 366.356 498.389 364.92C490.15 364.737 482.566 364.147 475.505 363.289L462.73 433.761C451.306 487.094 436.13 559.995 381.8 623.594C335.128 679.108 287.772 687.705 266.57 688.425C226.883 689.791 200.587 668.62 199.631 640.383C198.722 613.028 222.898 598.084 238.773 597.589C259.944 596.888 274.602 612.234 275.167 629.92C275.706 644.864 267.897 649.544 262.711 652.362C259.267 655.15 254.075 657.995 254.27 664.15C254.394 666.775 257.214 672.842 266.023 672.558C282.806 671.986 293.952 663.687 301.73 658.134C340.384 625.944 355.258 569.806 374.738 467.625L378.817 442.877C385.472 409.641 392.828 372.605 404.069 335.686C376.828 315.173 360.487 289.748 323.847 279.8C298.727 272.972 283.405 278.767 272.644 292.386C259.891 308.512 264.12 329.5 276.439 341.806L296.797 364.314C321.734 393.15 335.398 415.584 330.247 445.741C322.105 493.939 264.698 530.883 196.842 510.027C138.916 492.184 128.091 451.172 135.055 428.561C141.189 408.684 156.984 404.93 172.438 409.652C188.98 414.784 195.47 434.895 190.734 450.313C190.194 451.964 189.35 454.758 187.628 458.434C185.7 462.698 182.152 466.433 180.605 471.391C176.887 483.528 193.509 492.144 205.089 495.705C231.008 503.683 256.303 490.131 262.711 469.156C268.669 449.878 256.48 436.43 251.423 431.277L226.881 405C215.659 392.486 190.975 357.639 203.003 318.494C207.648 303.406 217.441 287.397 231.625 276.792C261.592 254.467 294.178 250.789 325.213 259.723C365.348 271.264 384.647 297.819 409.662 318.311C423.652 277.266 443.061 237.073 472.236 203.15C498.591 172.247 533.989 149.875 574.544 148.486C615.069 147.148 645.698 165.516 646.706 194.586C647.114 206.961 640.006 231.009 615.294 231.833Z" fill="white"/>
</svg>
