<svg width="943" height="192" viewBox="0 0 943 192" fill="none" xmlns="http://www.w3.org/2000/svg">
<path d="M53.76 141L35.072 107.08H29.824V141H7.936V51.144H44.672C51.7547 51.144 57.7707 52.3813 62.72 54.856C67.7547 57.3307 71.5093 60.744 73.984 65.096C76.4587 69.3627 77.696 74.1413 77.696 79.432C77.696 85.4053 75.9893 90.7387 72.576 95.432C69.248 100.125 64.2987 103.453 57.728 105.416L78.464 141H53.76ZM29.824 91.592H43.392C47.4027 91.592 50.3893 90.6107 52.352 88.648C54.4 86.6853 55.424 83.912 55.424 80.328C55.424 76.9147 54.4 74.2267 52.352 72.264C50.3893 70.3013 47.4027 69.32 43.392 69.32H29.824V91.592ZM123.948 142.024C116.951 142.024 110.636 140.531 105.004 137.544C99.4573 134.557 95.0627 130.291 91.82 124.744C88.6627 119.197 87.084 112.712 87.084 105.288C87.084 97.9493 88.7053 91.5067 91.948 85.96C95.1907 80.328 99.628 76.0187 105.26 73.032C110.892 70.0453 117.207 68.552 124.204 68.552C131.201 68.552 137.516 70.0453 143.148 73.032C148.78 76.0187 153.217 80.328 156.46 85.96C159.703 91.5067 161.324 97.9493 161.324 105.288C161.324 112.627 159.66 119.112 156.332 124.744C153.089 130.291 148.609 134.557 142.892 137.544C137.26 140.531 130.945 142.024 123.948 142.024ZM123.948 123.08C128.129 123.08 131.671 121.544 134.572 118.472C137.559 115.4 139.052 111.005 139.052 105.288C139.052 99.5707 137.601 95.176 134.7 92.104C131.884 89.032 128.385 87.496 124.204 87.496C119.937 87.496 116.396 89.032 113.58 92.104C110.764 95.0907 109.356 99.4853 109.356 105.288C109.356 111.005 110.721 115.4 113.452 118.472C116.268 121.544 119.767 123.08 123.948 123.08ZM264.072 68.808C272.947 68.808 279.987 71.496 285.192 76.872C290.483 82.248 293.128 89.7147 293.128 99.272V141H271.368V102.216C271.368 97.608 270.131 94.0667 267.656 91.592C265.267 89.032 261.939 87.752 257.672 87.752C253.405 87.752 250.035 89.032 247.56 91.592C245.171 94.0667 243.976 97.608 243.976 102.216V141H222.216V102.216C222.216 97.608 220.979 94.0667 218.504 91.592C216.115 89.032 212.787 87.752 208.52 87.752C204.253 87.752 200.883 89.032 198.408 91.592C196.019 94.0667 194.824 97.608 194.824 102.216V141H172.936V69.576H194.824V78.536C197.043 75.5493 199.944 73.2027 203.528 71.496C207.112 69.704 211.165 68.808 215.688 68.808C221.064 68.808 225.843 69.96 230.024 72.264C234.291 74.568 237.619 77.8533 240.008 82.12C242.483 78.1947 245.853 74.9947 250.12 72.52C254.387 70.0453 259.037 68.808 264.072 68.808ZM304.084 105.16C304.084 97.8213 305.449 91.3787 308.18 85.832C310.996 80.2853 314.793 76.0187 319.572 73.032C324.351 70.0453 329.684 68.552 335.572 68.552C340.607 68.552 345.001 69.576 348.756 71.624C352.596 73.672 355.54 76.36 357.588 79.688V69.576H379.476V141H357.588V130.888C355.455 134.216 352.468 136.904 348.628 138.952C344.873 141 340.479 142.024 335.444 142.024C329.641 142.024 324.351 140.531 319.572 137.544C314.793 134.472 310.996 130.163 308.18 124.616C305.449 118.984 304.084 112.499 304.084 105.16ZM357.588 105.288C357.588 99.8267 356.052 95.5173 352.98 92.36C349.993 89.2027 346.324 87.624 341.972 87.624C337.62 87.624 333.908 89.2027 330.836 92.36C327.849 95.432 326.356 99.6987 326.356 105.16C326.356 110.621 327.849 114.973 330.836 118.216C333.908 121.373 337.62 122.952 341.972 122.952C346.324 122.952 349.993 121.373 352.98 118.216C356.052 115.059 357.588 110.749 357.588 105.288ZM406.319 62.152C402.479 62.152 399.322 61.0427 396.847 58.824C394.458 56.52 393.263 53.704 393.263 50.376C393.263 46.9627 394.458 44.1467 396.847 41.928C399.322 39.624 402.479 38.472 406.319 38.472C410.074 38.472 413.146 39.624 415.535 41.928C418.01 44.1467 419.247 46.9627 419.247 50.376C419.247 53.704 418.01 56.52 415.535 58.824C413.146 61.0427 410.074 62.152 406.319 62.152ZM417.199 69.576V141H395.311V69.576H417.199ZM476.581 68.808C484.944 68.808 491.6 71.5387 496.549 77C501.584 82.376 504.101 89.8 504.101 99.272V141H482.341V102.216C482.341 97.4373 481.104 93.7253 478.629 91.08C476.154 88.4347 472.826 87.112 468.645 87.112C464.464 87.112 461.136 88.4347 458.661 91.08C456.186 93.7253 454.949 97.4373 454.949 102.216V141H433.061V69.576H454.949V79.048C457.168 75.8907 460.154 73.416 463.909 71.624C467.664 69.7467 471.888 68.808 476.581 68.808ZM648.196 51.144V141H626.308V87.112L606.212 141H588.548L568.324 86.984V141H546.436V51.144H572.292L597.508 113.352L622.468 51.144H648.196ZM674.944 62.152C671.104 62.152 667.947 61.0427 665.472 58.824C663.083 56.52 661.888 53.704 661.888 50.376C661.888 46.9627 663.083 44.1467 665.472 41.928C667.947 39.624 671.104 38.472 674.944 38.472C678.699 38.472 681.771 39.624 684.16 41.928C686.635 44.1467 687.872 46.9627 687.872 50.376C687.872 53.704 686.635 56.52 684.16 58.824C681.771 61.0427 678.699 62.152 674.944 62.152ZM685.824 69.576V141H663.936V69.576H685.824ZM723.574 46.28V141H701.686V46.28H723.574ZM761.324 46.28V141H739.436V46.28H761.324ZM772.834 105.16C772.834 97.8213 774.199 91.3787 776.93 85.832C779.746 80.2853 783.543 76.0187 788.322 73.032C793.101 70.0453 798.434 68.552 804.322 68.552C809.357 68.552 813.751 69.576 817.506 71.624C821.346 73.672 824.29 76.36 826.338 79.688V69.576H848.226V141H826.338V130.888C824.205 134.216 821.218 136.904 817.378 138.952C813.623 141 809.229 142.024 804.194 142.024C798.391 142.024 793.101 140.531 788.322 137.544C783.543 134.472 779.746 130.163 776.93 124.616C774.199 118.984 772.834 112.499 772.834 105.16ZM826.338 105.288C826.338 99.8267 824.802 95.5173 821.73 92.36C818.743 89.2027 815.074 87.624 810.722 87.624C806.37 87.624 802.658 89.2027 799.586 92.36C796.599 95.432 795.106 99.6987 795.106 105.16C795.106 110.621 796.599 114.973 799.586 118.216C802.658 121.373 806.37 122.952 810.722 122.952C815.074 122.952 818.743 121.373 821.73 118.216C824.802 115.059 826.338 110.749 826.338 105.288ZM907.581 68.808C915.944 68.808 922.6 71.5387 927.549 77C932.584 82.376 935.101 89.8 935.101 99.272V141H913.341V102.216C913.341 97.4373 912.104 93.7253 909.629 91.08C907.154 88.4347 903.826 87.112 899.645 87.112C895.464 87.112 892.136 88.4347 889.661 91.08C887.186 93.7253 885.949 97.4373 885.949 102.216V141H864.061V69.576H885.949V79.048C888.168 75.8907 891.154 73.416 894.909 71.624C898.664 69.7467 902.888 68.808 907.581 68.808Z" fill="white"/>
<circle cx="675" cy="49" r="14" fill="#FACD23"/>
<circle cx="406" cy="49" r="14" fill="#FACD23"/>
</svg>
