<svg width="222" height="190" viewBox="0 0 222 190" fill="none" xmlns="http://www.w3.org/2000/svg">
<path d="M181.813 189.629L22.3563 189.684C14.3456 189.687 7.1698 185.547 3.16203 178.611C1.1579 175.143 0.155618 171.338 0.154298 167.532C0.152978 163.727 1.15312 159.921 3.15437 156.451L82.8322 11.4024C86.8357 4.46302 94.0086 0.318933 102.019 0.316163C110.03 0.313393 117.206 4.45252 121.214 11.3891L201.002 156.401C203.001 159.86 204.001 163.661 204.001 167.464C204.001 171.267 203.002 175.073 201 178.543C196.997 185.482 189.824 189.626 181.813 189.629ZM2.15868 167.529C2.15842 170.993 19.754 163.529 21.5769 166.684C25.2231 172.995 15.0675 187.687 22.3556 187.684C22.3556 187.684 195.626 183.856 199.268 177.543C201.088 174.387 201.998 170.924 201.997 167.462C201.996 164 201.084 160.539 199.26 157.384L119.472 12.3717C115.836 6.07946 109.308 2.31364 102.02 2.31616C94.7353 2.31868 2.15895 164.065 2.15868 167.529Z" fill="#1E293B"/>
<path d="M148.549 157.64C188.866 157.64 221.549 124.957 221.549 84.6404C221.549 44.3236 188.866 11.6404 148.549 11.6404C108.232 11.6404 75.5488 44.3236 75.5488 84.6404C75.5488 124.957 108.232 157.64 148.549 157.64Z" fill="#FACD23"/>
<path d="M148.562 129.39C152.264 129.39 155.265 126.39 155.265 122.688C155.265 118.986 152.264 115.985 148.562 115.985C144.86 115.985 141.859 118.986 141.859 122.688C141.859 126.39 144.86 129.39 148.562 129.39Z" fill="white"/>
<path d="M148.533 39.8904C147.917 43.9816 149.021 44.8377 149.027 62.4755C149.033 80.1133 152.692 103.761 148.555 103.763C144.418 103.764 142.905 54.9599 128.538 50.6405C111.647 45.562 150.526 26.6464 148.533 39.8904Z" fill="white"/>
</svg>
