<svg width="274" height="140" viewBox="0 0 274 140" fill="none" xmlns="http://www.w3.org/2000/svg">
<path d="M93.6108 97.5862L115.275 139.125H71.5496L54.06 105.337H39.7496V139.125H0V0H55.6496C95.9963 0 115.275 19.4775 115.275 52.8675C115.275 72.9412 101.76 97.9836 72.5435 97.9836V99.5736C80.0963 99.5736 87.4496 99.1762 93.6108 97.5862ZM55.6497 69.5625C69.1648 69.5625 75.5248 63.2024 75.5248 52.6687C75.5248 42.135 69.1648 35.775 55.6497 35.775H39.7496V69.5625L55.6497 69.5625Z" fill="#FDCA40"/>
<path d="M172.638 4.68493e-05L200.463 84.6675L228.288 4.68493e-05H274V139.125H234.25V105.934L243.79 54.2588L218.35 139.125H182.575L157.135 54.2588L166.675 105.934V139.125H126.925V4.68493e-05H172.638Z" fill="#FDCA40"/>
<path d="M166.675 105.934V86.0836L157.135 54.2588L166.675 105.934Z" fill="#FDCA40"/>
<path opacity="0.3" d="M166.675 105.934V86.0836L157.135 54.2588L166.675 105.934Z" fill="#010101"/>
<path d="M243.79 54.2588L234.25 105.934V86.0836L243.79 54.2588Z" fill="#FDCA40"/>
<path opacity="0.3" d="M243.79 54.2588L234.25 105.934V86.0836L243.79 54.2588Z" fill="#010101"/>
</svg>
