<svg width="765" height="202" viewBox="0 0 765 202" fill="none" xmlns="http://www.w3.org/2000/svg">
<g clip-path="url(#clip0_389_109)">
<path d="M43.6123 123.46L28.4518 93.7598H24.1944V123.46H6.43799V44.7819H36.2397C41.9855 44.7819 46.8659 45.8653 50.881 48.0322C54.9654 50.199 58.0112 53.1877 60.0188 56.9984C62.0264 60.7343 63.0301 64.9185 63.0301 69.551C63.0301 74.7813 61.6456 79.4512 58.8766 83.5607C56.1768 87.6699 52.1617 90.584 46.8313 92.3028L63.6532 123.46H43.6123ZM24.1944 80.1984H35.2013C38.455 80.1984 40.8778 79.3392 42.4701 77.6206C44.1315 75.9021 44.9622 73.4738 44.9622 70.3356C44.9622 67.3469 44.1315 64.9933 42.4701 63.2747C40.8778 61.5562 38.455 60.6969 35.2013 60.6969H24.1944V80.1984ZM100.552 124.357C94.8754 124.357 89.7524 123.05 85.1835 120.434C80.6838 117.819 77.1187 114.083 74.4881 109.226C71.9268 104.369 70.6461 98.6912 70.6461 92.1907C70.6461 85.7649 71.9613 80.1237 74.5919 75.267C77.2225 70.3356 80.8223 66.5623 85.3912 63.9472C89.9601 61.332 95.0831 60.0245 100.759 60.0245C106.436 60.0245 111.559 61.332 116.127 63.9472C120.696 66.5623 124.296 70.3356 126.927 75.267C129.558 80.1237 130.873 85.7649 130.873 92.1907C130.873 98.6168 129.523 104.295 126.823 109.226C124.192 114.083 120.558 117.819 115.92 120.434C111.351 123.05 106.228 124.357 100.552 124.357ZM100.552 107.769C103.943 107.769 106.817 106.425 109.17 103.735C111.593 101.045 112.805 97.1965 112.805 92.1907C112.805 87.1846 111.628 83.3366 109.274 80.6467C106.99 77.9569 104.151 76.6119 100.759 76.6119C97.2978 76.6119 94.4252 77.9569 92.1407 80.6467C89.8562 83.2619 88.714 87.1098 88.714 92.1907C88.714 97.1965 89.8214 101.045 92.0369 103.735C94.3213 106.425 97.1598 107.769 100.552 107.769ZM214.226 60.2486C221.426 60.2486 227.137 62.6022 231.359 67.3095C235.652 72.0168 237.797 78.5546 237.797 86.923V123.46H220.145V89.5008C220.145 85.466 219.141 82.3653 217.133 80.1984C215.195 77.9569 212.496 76.8361 209.034 76.8361C205.572 76.8361 202.839 77.9569 200.831 80.1984C198.893 82.3653 197.923 85.466 197.923 89.5008V123.46H180.271V89.5008C180.271 85.466 179.267 82.3653 177.259 80.1984C175.321 77.9569 172.621 76.8361 169.16 76.8361C165.698 76.8361 162.964 77.9569 160.957 80.1984C159.019 82.3653 158.049 85.466 158.049 89.5008V123.46H140.293V60.9211H158.049V68.7665C159.849 66.1513 162.203 64.0966 165.11 62.6022C168.018 61.0332 171.306 60.2486 174.975 60.2486C179.336 60.2486 183.213 61.2573 186.605 63.2747C190.066 65.2921 192.766 68.1687 194.704 71.9047C196.712 68.4677 199.446 65.6657 202.907 63.4989C206.369 61.332 210.141 60.2486 214.226 60.2486ZM246.685 92.0786C246.685 85.6528 247.793 80.0116 250.008 75.1549C252.293 70.2982 255.373 66.5623 259.25 63.9472C263.127 61.332 267.453 60.0245 272.23 60.0245C276.314 60.0245 279.879 60.9211 282.925 62.7143C286.04 64.5076 288.428 66.8612 290.09 69.7752V60.9211H307.846V123.46H290.09V114.606C288.36 117.52 285.936 119.874 282.821 121.667C279.775 123.46 276.21 124.357 272.126 124.357C267.418 124.357 263.127 123.05 259.25 120.434C255.373 117.744 252.293 113.971 250.008 109.114C247.793 104.183 246.685 98.5047 246.685 92.0786ZM290.09 92.1907C290.09 87.4087 288.844 83.6354 286.352 80.8709C283.929 78.1063 280.952 76.724 277.422 76.724C273.891 76.724 270.88 78.1063 268.388 80.8709C265.964 83.5607 264.753 87.2967 264.753 92.0786C264.753 96.8603 265.964 100.671 268.388 103.511C270.88 106.275 273.891 107.657 277.422 107.657C280.952 107.657 283.929 106.275 286.352 103.511C288.844 100.746 290.09 96.9724 290.09 92.1907ZM329.622 54.4206C326.507 54.4206 323.946 53.4493 321.938 51.5066C320 49.4892 319.031 47.0235 319.031 44.1095C319.031 41.1208 320 38.6551 321.938 36.7124C323.946 34.695 326.507 33.6863 329.622 33.6863C332.669 33.6863 335.161 34.695 337.099 36.7124C339.107 38.6551 340.11 41.1208 340.11 44.1095C340.11 47.0235 339.107 49.4892 337.099 51.5066C335.161 53.4493 332.669 54.4206 329.622 54.4206ZM338.449 60.9211V123.46H320.692V60.9211H338.449ZM386.622 60.2486C393.406 60.2486 398.806 62.6396 402.821 67.4216C406.905 72.1288 408.947 78.6293 408.947 86.923V123.46H391.295V89.5008C391.295 85.3166 390.291 82.0663 388.283 79.7501C386.275 77.4339 383.576 76.2757 380.184 76.2757C376.792 76.2757 374.092 77.4339 372.084 79.7501C370.077 82.0663 369.073 85.3166 369.073 89.5008V123.46H351.317V60.9211H369.073V69.2148C370.873 66.4503 373.296 64.2834 376.342 62.7143C379.388 61.0706 382.815 60.2486 386.622 60.2486ZM525.843 44.7819V123.46H508.087V76.2757L491.784 123.46H477.454L461.048 76.1636V123.46H443.291V44.7819H464.267L484.723 99.2516L504.971 44.7819H525.843ZM547.542 54.4206C544.427 54.4206 541.866 53.4493 539.858 51.5066C537.92 49.4892 536.951 47.0235 536.951 44.1095C536.951 41.1208 537.92 38.6551 539.858 36.7124C541.866 34.695 544.427 33.6863 547.542 33.6863C550.588 33.6863 553.08 34.695 555.018 36.7124C557.026 38.6551 558.03 41.1208 558.03 44.1095C558.03 47.0235 557.026 49.4892 555.018 51.5066C553.08 53.4493 550.588 54.4206 547.542 54.4206ZM556.368 60.9211V123.46H538.612V60.9211H556.368ZM586.993 40.523V123.46H569.236V40.523H586.993ZM617.617 40.523V123.46H599.861V40.523H617.617ZM626.954 92.0786C626.954 85.6528 628.062 80.0116 630.277 75.1549C632.562 70.2982 635.642 66.5623 639.519 63.9472C643.396 61.332 647.722 60.0245 652.499 60.0245C656.583 60.0245 660.148 60.9211 663.194 62.7143C666.309 64.5076 668.698 66.8612 670.359 69.7752V60.9211H688.115V123.46H670.359V114.606C668.629 117.52 666.205 119.874 663.09 121.667C660.044 123.46 656.479 124.357 652.395 124.357C647.687 124.357 643.396 123.05 639.519 120.434C635.642 117.744 632.562 113.971 630.277 109.114C628.062 104.183 626.954 98.5047 626.954 92.0786ZM670.359 92.1907C670.359 87.4087 669.113 83.6354 666.621 80.8709C664.198 78.1063 661.221 76.724 657.691 76.724C654.16 76.724 651.149 78.1063 648.657 80.8709C646.234 83.5607 645.022 87.2967 645.022 92.0786C645.022 96.8603 646.234 100.671 648.657 103.511C651.149 106.275 654.16 107.657 657.691 107.657C661.221 107.657 664.198 106.275 666.621 103.511C669.113 100.746 670.359 96.9724 670.359 92.1907ZM736.267 60.2486C743.051 60.2486 748.451 62.6396 752.466 67.4216C756.55 72.1288 758.592 78.6293 758.592 86.923V123.46H740.939V89.5008C740.939 85.3166 739.936 82.0663 737.928 79.7501C735.92 77.4339 733.22 76.2757 729.829 76.2757C726.437 76.2757 723.737 77.4339 721.729 79.7501C719.721 82.0663 718.718 85.3166 718.718 89.5008V123.46H700.961V60.9211H718.718V69.2148C720.518 66.4503 722.94 64.2834 725.987 62.7143C729.033 61.0706 732.459 60.2486 736.267 60.2486Z" fill="white"/>
<path d="M547.587 55.1631C553.86 55.1631 558.945 49.6748 558.945 42.9046C558.945 36.1345 553.86 30.6462 547.587 30.6462C541.315 30.6462 536.23 36.1345 536.23 42.9046C536.23 49.6748 541.315 55.1631 547.587 55.1631Z" fill="#FACD23"/>
<path d="M329.364 55.1631C335.636 55.1631 340.721 49.6748 340.721 42.9046C340.721 36.1345 335.636 30.6462 329.364 30.6462C323.091 30.6462 318.006 36.1345 318.006 42.9046C318.006 49.6748 323.091 55.1631 329.364 55.1631Z" fill="#FACD23"/>
</g>
<path d="M510.88 129.806L500.16 175.286H493.56L504.28 129.806H510.88ZM523.925 168.086C521.872 168.086 520.032 167.753 518.405 167.086C516.779 166.42 515.472 165.433 514.485 164.126C513.525 162.82 513.019 161.246 512.965 159.406H520.245C520.352 160.446 520.712 161.246 521.325 161.806C521.939 162.34 522.739 162.606 523.725 162.606C524.739 162.606 525.539 162.38 526.125 161.926C526.712 161.446 527.005 160.793 527.005 159.966C527.005 159.273 526.765 158.7 526.285 158.246C525.832 157.793 525.259 157.42 524.565 157.126C523.899 156.833 522.939 156.5 521.685 156.126C519.872 155.566 518.392 155.006 517.245 154.446C516.099 153.886 515.112 153.06 514.285 151.966C513.459 150.873 513.045 149.446 513.045 147.686C513.045 145.073 513.992 143.033 515.885 141.566C517.779 140.073 520.245 139.326 523.285 139.326C526.379 139.326 528.872 140.073 530.765 141.566C532.659 143.033 533.672 145.086 533.805 147.726H526.405C526.352 146.82 526.019 146.113 525.405 145.606C524.792 145.073 524.005 144.806 523.045 144.806C522.219 144.806 521.552 145.033 521.045 145.486C520.539 145.913 520.285 146.54 520.285 147.366C520.285 148.273 520.712 148.98 521.565 149.486C522.419 149.993 523.752 150.54 525.565 151.126C527.379 151.74 528.845 152.326 529.965 152.886C531.112 153.446 532.099 154.26 532.925 155.326C533.752 156.393 534.165 157.766 534.165 159.446C534.165 161.046 533.752 162.5 532.925 163.806C532.125 165.113 530.952 166.153 529.405 166.926C527.859 167.7 526.032 168.086 523.925 168.086ZM541.815 143.166C540.615 143.166 539.628 142.82 538.855 142.126C538.108 141.406 537.735 140.526 537.735 139.486C537.735 138.42 538.108 137.54 538.855 136.846C539.628 136.126 540.615 135.766 541.815 135.766C542.988 135.766 543.948 136.126 544.695 136.846C545.468 137.54 545.855 138.42 545.855 139.486C545.855 140.526 545.468 141.406 544.695 142.126C543.948 142.82 542.988 143.166 541.815 143.166ZM545.215 145.486V167.806H538.375V145.486H545.215ZM558.652 145.166C560.225 145.166 561.598 145.486 562.772 146.126C563.972 146.766 564.892 147.606 565.532 148.646V145.486H572.372V167.766C572.372 169.82 571.958 171.673 571.132 173.326C570.332 175.006 569.092 176.34 567.412 177.326C565.758 178.313 563.692 178.806 561.212 178.806C557.905 178.806 555.225 178.02 553.172 176.446C551.118 174.9 549.945 172.793 549.652 170.126H556.412C556.625 170.98 557.132 171.646 557.932 172.126C558.732 172.633 559.718 172.886 560.892 172.886C562.305 172.886 563.425 172.473 564.252 171.646C565.105 170.846 565.532 169.553 565.532 167.766V164.606C564.865 165.646 563.945 166.5 562.772 167.166C561.598 167.806 560.225 168.126 558.652 168.126C556.812 168.126 555.145 167.66 553.652 166.726C552.158 165.766 550.972 164.42 550.092 162.686C549.238 160.926 548.812 158.9 548.812 156.606C548.812 154.313 549.238 152.3 550.092 150.566C550.972 148.833 552.158 147.5 553.652 146.566C555.145 145.633 556.812 145.166 558.652 145.166ZM565.532 156.646C565.532 154.94 565.052 153.593 564.092 152.606C563.158 151.62 562.012 151.126 560.652 151.126C559.292 151.126 558.132 151.62 557.172 152.606C556.238 153.566 555.772 154.9 555.772 156.606C555.772 158.313 556.238 159.673 557.172 160.686C558.132 161.673 559.292 162.166 560.652 162.166C562.012 162.166 563.158 161.673 564.092 160.686C565.052 159.7 565.532 158.353 565.532 156.646ZM590.92 145.246C593.533 145.246 595.613 146.1 597.16 147.806C598.733 149.486 599.52 151.806 599.52 154.766V167.806H592.72V155.686C592.72 154.193 592.333 153.033 591.56 152.206C590.787 151.38 589.747 150.966 588.44 150.966C587.133 150.966 586.093 151.38 585.32 152.206C584.547 153.033 584.16 154.193 584.16 155.686V167.806H577.32V145.486H584.16V148.446C584.853 147.46 585.787 146.686 586.96 146.126C588.133 145.54 589.453 145.246 590.92 145.246ZM602.913 156.606C602.913 154.313 603.34 152.3 604.193 150.566C605.073 148.833 606.26 147.5 607.753 146.566C609.247 145.633 610.913 145.166 612.753 145.166C614.327 145.166 615.7 145.486 616.873 146.126C618.073 146.766 618.993 147.606 619.633 148.646V145.486H626.473V167.806H619.633V164.646C618.967 165.686 618.033 166.526 616.833 167.166C615.66 167.806 614.287 168.126 612.713 168.126C610.9 168.126 609.247 167.66 607.753 166.726C606.26 165.766 605.073 164.42 604.193 162.686C603.34 160.926 602.913 158.9 602.913 156.606ZM619.633 156.646C619.633 154.94 619.153 153.593 618.193 152.606C617.26 151.62 616.113 151.126 614.753 151.126C613.393 151.126 612.233 151.62 611.273 152.606C610.34 153.566 609.873 154.9 609.873 156.606C609.873 158.313 610.34 159.673 611.273 160.686C612.233 161.673 613.393 162.166 614.753 162.166C616.113 162.166 617.26 161.673 618.193 160.686C619.153 159.7 619.633 158.353 619.633 156.646ZM643.862 162.006V167.806H640.382C637.902 167.806 635.968 167.206 634.582 166.006C633.195 164.78 632.502 162.793 632.502 160.046V151.166H629.782V145.486H632.502V140.046H639.342V145.486H643.822V151.166H639.342V160.126C639.342 160.793 639.502 161.273 639.822 161.566C640.142 161.86 640.675 162.006 641.422 162.006H643.862ZM669.712 145.486V167.806H662.872V164.766C662.178 165.753 661.232 166.553 660.032 167.166C658.858 167.753 657.552 168.046 656.112 168.046C654.405 168.046 652.898 167.673 651.592 166.926C650.285 166.153 649.272 165.046 648.552 163.606C647.832 162.166 647.472 160.473 647.472 158.526V145.486H654.272V157.606C654.272 159.1 654.658 160.26 655.432 161.086C656.205 161.913 657.245 162.326 658.552 162.326C659.885 162.326 660.938 161.913 661.712 161.086C662.485 160.26 662.872 159.1 662.872 157.606V145.486H669.712ZM681.465 149.206C682.265 147.98 683.265 147.02 684.465 146.326C685.665 145.606 686.998 145.246 688.465 145.246V152.486H686.585C684.878 152.486 683.598 152.86 682.745 153.606C681.891 154.326 681.465 155.606 681.465 157.446V167.806H674.625V145.486H681.465V149.206ZM712.774 156.286C712.774 156.926 712.734 157.593 712.654 158.286H697.174C697.281 159.673 697.721 160.74 698.494 161.486C699.294 162.206 700.267 162.566 701.414 162.566C703.121 162.566 704.307 161.846 704.974 160.406H712.254C711.881 161.873 711.201 163.193 710.214 164.366C709.254 165.54 708.041 166.46 706.574 167.126C705.107 167.793 703.467 168.126 701.654 168.126C699.467 168.126 697.521 167.66 695.814 166.726C694.107 165.793 692.774 164.46 691.814 162.726C690.854 160.993 690.374 158.966 690.374 156.646C690.374 154.326 690.841 152.3 691.774 150.566C692.734 148.833 694.067 147.5 695.774 146.566C697.481 145.633 699.441 145.166 701.654 145.166C703.814 145.166 705.734 145.62 707.414 146.526C709.094 147.433 710.401 148.726 711.334 150.406C712.294 152.086 712.774 154.046 712.774 156.286ZM705.774 154.486C705.774 153.313 705.374 152.38 704.574 151.686C703.774 150.993 702.774 150.646 701.574 150.646C700.427 150.646 699.454 150.98 698.654 151.646C697.881 152.313 697.401 153.26 697.214 154.486H705.774Z" fill="white"/>
<defs>
<clipPath id="clip0_389_109">
<rect width="765" height="168.116" fill="white"/>
</clipPath>
</defs>
</svg>
