<svg width="26" height="26" viewBox="0 0 26 26" fill="none" xmlns="http://www.w3.org/2000/svg">
<path fill-rule="evenodd" clip-rule="evenodd" d="M13 19.5C16.5898 19.5 19.5 16.5898 19.5 13C19.5 9.41015 16.5898 6.5 13 6.5C9.41015 6.5 6.5 9.41015 6.5 13C6.5 16.5898 9.41015 19.5 13 19.5ZM13 17.3333C15.3932 17.3333 17.3333 15.3932 17.3333 13C17.3333 10.6068 15.3932 8.66667 13 8.66667C10.6068 8.66667 8.66667 10.6068 8.66667 13C8.66667 15.3932 10.6068 17.3333 13 17.3333Z" fill="white"/>
<path d="M19.5 5.4165C18.9017 5.4165 18.4167 5.90153 18.4167 6.49984C18.4167 7.09814 18.9017 7.58317 19.5 7.58317C20.0983 7.58317 20.5833 7.09814 20.5833 6.49984C20.5833 5.90153 20.0983 5.4165 19.5 5.4165Z" fill="white"/>
<path fill-rule="evenodd" clip-rule="evenodd" d="M1.79179 4.63256C1.08333 6.02299 1.08333 7.84316 1.08333 11.4835V14.5168C1.08333 18.1572 1.08333 19.9774 1.79179 21.3677C2.41497 22.5908 3.40934 23.5852 4.6324 24.2083C6.02283 24.9168 7.843 24.9168 11.4833 24.9168H14.5167C18.157 24.9168 19.9772 24.9168 21.3676 24.2083C22.5906 23.5852 23.585 22.5908 24.2082 21.3677C24.9167 19.9774 24.9167 18.1572 24.9167 14.5168V11.4835C24.9167 7.84316 24.9167 6.02299 24.2082 4.63256C23.585 3.4095 22.5906 2.41513 21.3676 1.79195C19.9772 1.0835 18.157 1.0835 14.5167 1.0835H11.4833C7.843 1.0835 6.02283 1.0835 4.6324 1.79195C3.40934 2.41513 2.41497 3.4095 1.79179 4.63256ZM14.5167 3.25016H11.4833C9.62741 3.25016 8.36577 3.25185 7.39059 3.33152C6.44068 3.40913 5.95491 3.5498 5.61604 3.72246C4.80067 4.13792 4.13776 4.80084 3.7223 5.61621C3.54964 5.95507 3.40897 6.44084 3.33136 7.39075C3.25169 8.36593 3.25 9.62757 3.25 11.4835V14.5168C3.25 16.3728 3.25169 17.6343 3.33136 18.6096C3.40897 19.5595 3.54964 20.0453 3.7223 20.3842C4.13776 21.1995 4.80067 21.8624 5.61604 22.2778C5.95491 22.4505 6.44068 22.5912 7.39059 22.6688C8.36577 22.7484 9.62741 22.7502 11.4833 22.7502H14.5167C16.3726 22.7502 17.6342 22.7484 18.6094 22.6688C19.5594 22.5912 20.0451 22.4505 20.384 22.2778C21.1993 21.8624 21.8622 21.1995 22.2777 20.3842C22.4503 20.0453 22.5911 19.5595 22.6686 18.6096C22.7483 17.6343 22.75 16.3728 22.75 14.5168V11.4835C22.75 9.62757 22.7483 8.36593 22.6686 7.39075C22.5911 6.44084 22.4503 5.95507 22.2777 5.61621C21.8622 4.80084 21.1993 4.13792 20.384 3.72246C20.0451 3.5498 19.5594 3.40913 18.6094 3.33152C17.6342 3.25185 16.3726 3.25016 14.5167 3.25016Z" fill="white"/>
</svg>
