<svg width="527" height="202" viewBox="0 0 527 202" fill="none" xmlns="http://www.w3.org/2000/svg">
<path d="M145.186 86.8334C144.924 86.0652 144.482 85.3708 143.897 84.8077C143.681 84.6075 143.447 84.4272 143.199 84.2691C141.219 82.949 138.26 82.6531 136.378 84.2691C136.189 84.4334 136.014 84.6136 135.855 84.8077C135.293 85.4981 134.717 86.1733 134.125 86.8334C133.154 87.9411 132.16 89.0108 131.121 90.0502C130.825 90.3385 130.529 90.6344 130.225 90.9227C130.051 91.0972 129.876 91.2641 129.702 91.431C129.034 92.0683 128.351 92.6828 127.661 93.2898C127.297 93.616 126.933 93.9347 126.561 94.2457C126.007 94.7085 125.453 95.1713 124.892 95.6189C124.839 95.6569 124.786 95.6948 124.732 95.7403C124.717 95.7479 124.71 95.7631 124.694 95.7707C124.687 95.7707 124.679 95.7706 124.672 95.7858C124.651 95.7939 124.633 95.807 124.619 95.8238C124.452 95.9376 124.338 96.0134 124.254 96.0817C124.285 96.0666 124.315 96.0438 124.346 96.0286C124.209 96.1348 124.065 96.2411 123.928 96.3473C122.601 97.326 121.242 98.2667 119.854 99.1468C116.419 101.345 112.811 103.261 109.066 104.875C108.815 104.973 108.557 105.08 108.299 105.178C98.4932 109.196 87.8557 110.763 77.3074 109.746C76.23 109.662 75.1527 109.548 74.0754 109.404C72.8311 109.222 71.5945 109.002 70.3654 108.752C65.6863 107.818 61.1081 106.436 56.694 104.624C51.1724 102.096 45.9209 99.0152 41.0197 95.4293C40.261 94.8906 39.4947 94.3519 38.7285 93.8285C39.601 91.689 40.4583 89.5495 41.2928 87.3948C41.7101 86.3554 42.1122 85.316 42.5067 84.2691C45.6097 76.2043 48.523 68.0636 51.315 59.8927C54.1373 51.6155 56.8002 43.2902 59.3039 34.9169C59.5618 34.0672 59.8122 33.2175 60.055 32.3678C61.3675 27.9447 62.6269 23.5115 63.8332 19.0681C63.947 18.6357 64.0684 18.2109 64.1746 17.7784C64.5236 16.5038 64.865 15.2292 65.1988 13.9546C65.9575 11.0792 64.2429 7.64241 61.2233 6.95201C59.7695 6.57925 58.2277 6.78536 56.9229 7.52695C55.6181 8.26853 54.652 9.48767 54.2283 10.9275C53.9021 12.1565 53.5758 13.378 53.242 14.6071C51.6412 20.5475 49.9569 26.4678 48.1892 32.3678C47.9313 33.2175 47.6733 34.0672 47.4154 34.9169C43.5158 47.769 39.2343 60.492 34.5709 73.0861C34.0095 74.6111 33.4405 76.131 32.8639 77.6458C32.5832 78.3893 32.3025 79.1328 32.0142 79.8763C31.4603 81.3406 30.8913 82.8048 30.3223 84.2691C29.996 85.1264 29.6622 85.9837 29.3284 86.8334C29.1084 87.3721 28.896 87.9107 28.6836 88.4418C26.5204 87.6651 24.2793 87.1258 21.9996 86.8334L21.6354 86.7879C19.868 86.5752 18.0806 86.5905 16.3171 86.8334C13.6777 87.1414 11.1381 88.0254 8.87801 89.4229C6.61787 90.8204 4.69231 92.6973 3.23743 94.921C-0.381469 100.619 -0.335951 108.767 4.73962 113.607C9.96692 118.592 17.88 118.554 24.0329 115.436C27.2935 113.672 30.0428 111.095 32.0142 107.955C32.7694 106.817 33.4633 105.639 34.093 104.427C34.2523 104.533 34.4116 104.64 34.5709 104.753C35.1778 105.178 35.7848 105.611 36.3842 106.036C39.8764 108.566 43.5565 110.825 47.3926 112.795C55.6409 116.896 64.5197 119.581 73.6581 120.739C73.8629 120.762 74.0602 120.792 74.265 120.815C75.2741 120.944 76.2907 121.042 77.3074 121.126C91.8908 122.225 106.492 119.24 119.475 112.507C120.575 111.938 121.665 111.341 122.745 110.717C124.421 109.746 126.06 108.714 127.661 107.621C128.533 107.029 129.383 106.43 130.225 105.8C133.905 103.09 137.336 100.056 140.475 96.7342C141.666 95.4823 142.807 94.19 143.897 92.8573C144.927 91.767 145.521 90.336 145.566 88.8363C145.56 88.1514 145.431 87.473 145.186 86.8334ZM19.5566 104.905C19.716 104.791 19.8753 104.67 20.027 104.549C19.9815 104.662 19.7615 104.791 19.5566 104.905ZM21.992 102.455C21.8175 102.652 21.6582 102.849 21.4837 103.046C20.9528 103.64 20.3825 104.198 19.7766 104.715C19.6932 104.791 19.6022 104.867 19.5111 104.935C19.5101 104.935 19.5091 104.936 19.5082 104.936C19.5073 104.936 19.5064 104.937 19.5057 104.938C19.505 104.938 19.5044 104.939 19.5041 104.94C19.5037 104.941 19.5035 104.942 19.5035 104.943C19.3939 104.992 19.2875 105.048 19.1849 105.11C18.8586 105.307 18.5248 105.489 18.1834 105.656C17.515 105.902 16.8273 106.093 16.1274 106.225C15.5896 106.264 15.0499 106.27 14.5114 106.24H14.4962C14.1246 106.158 13.7575 106.057 13.3962 105.937C13.2141 105.846 13.0396 105.74 12.8651 105.633C12.7968 105.573 12.7361 105.512 12.6982 105.474C12.6241 105.406 12.5556 105.333 12.4934 105.254C12.4934 105.253 12.4932 105.252 12.4928 105.251C12.4925 105.25 12.4919 105.249 12.4912 105.249C12.4905 105.248 12.4896 105.247 12.4887 105.247C12.4878 105.247 12.4868 105.247 12.4858 105.247C12.4023 105.095 12.3113 104.943 12.2278 104.791C12.2235 104.787 12.2208 104.782 12.2202 104.776C12.1596 104.587 12.1065 104.389 12.0609 104.192C12.0445 103.846 12.047 103.499 12.0685 103.153C12.1703 102.668 12.3072 102.191 12.4782 101.726C12.6318 101.397 12.8067 101.077 13.0017 100.77C13.0169 100.74 13.0927 100.619 13.1762 100.482C13.1838 100.474 13.1838 100.474 13.1838 100.467C13.2976 100.338 13.4114 100.201 13.5328 100.08C13.7376 99.8524 13.9576 99.6551 14.1777 99.4502C14.6055 99.1702 15.0488 98.9144 15.5053 98.684C16.2296 98.4267 16.9728 98.2263 17.7283 98.0846C18.8422 97.9961 19.9619 98.0063 21.0741 98.115C22.1275 98.2977 23.1668 98.5538 24.1846 98.8812C23.5678 100.078 22.8654 101.229 22.0831 102.326C22.0527 102.371 22.0224 102.417 21.992 102.455ZM13.5555 99.9585C13.4886 100.066 13.4097 100.165 13.3203 100.254C13.3805 100.143 13.4601 100.042 13.5555 99.9585Z" fill="currentColor"/>
<path d="M122.381 9.34952C122.312 11.7318 122.244 14.114 122.176 16.4963C122.032 21.7843 121.882 27.0748 121.728 32.3679C121.569 38.3235 121.402 44.2766 121.227 50.2272C121.144 53.2999 121.058 56.3726 120.97 59.4452C120.734 67.7224 120.502 75.997 120.272 84.2692C120.249 85.1265 120.218 85.9762 120.196 86.8335C120.082 90.938 119.968 95.0424 119.854 99.1469C119.725 103.6 119.599 108.054 119.475 112.507C119.384 115.845 119.29 119.186 119.194 122.529C118.511 146.754 117.829 170.979 117.146 195.203C117.117 196.703 116.508 198.134 115.447 199.195C114.386 200.256 112.956 200.865 111.456 200.893C109.95 200.881 108.51 200.278 107.446 199.213C106.381 198.149 105.778 196.709 105.766 195.203C106.145 181.577 106.529 167.952 106.919 154.326C107.26 142.005 107.607 129.684 107.958 117.363C108.072 113.304 108.186 109.242 108.3 105.178C108.474 99.0634 108.646 92.9485 108.816 86.8335C108.838 85.9762 108.869 85.1265 108.891 84.2692C108.907 83.5181 108.929 82.7746 108.952 82.0235C109.286 70.1502 109.62 58.2743 109.954 46.3959C110.09 41.7224 110.222 37.0464 110.348 32.3679C110.5 27.0344 110.652 21.7034 110.803 16.3749C110.872 14.0306 110.932 11.6938 111.001 9.34952C111.029 7.84944 111.638 6.41885 112.699 5.35793C113.76 4.29702 115.191 3.68827 116.691 3.65942C118.196 3.67155 119.636 4.27495 120.701 5.33943C121.765 6.40392 122.369 7.84417 122.381 9.34952Z" fill="currentColor"/>
<path d="M434.523 10.9284C428.556 33.5217 421.425 55.7912 413.158 77.6477C410.876 83.6765 408.542 89.6933 406.048 95.6374L406.621 94.2782C405.508 97.1095 404.086 99.8094 402.381 102.329C402.265 102.492 402.147 102.653 402.026 102.812C402.616 102.058 402.728 101.909 402.362 102.365C402.17 102.593 401.979 102.822 401.78 103.044C401.249 103.639 400.679 104.197 400.074 104.716C399.921 104.846 399.767 104.974 399.61 105.099L400.321 104.546C400.239 104.74 399.659 104.999 399.478 105.109C398.894 105.462 398.284 105.771 397.654 106.034L399.013 105.46C397.981 105.876 396.903 106.171 395.803 106.341L397.316 106.137C396.235 106.287 395.139 106.298 394.055 106.172L395.568 106.375C394.681 106.253 393.813 106.02 392.984 105.68L394.344 106.253C393.902 106.061 393.476 105.833 393.07 105.574C392.864 105.439 392.232 104.96 393.059 105.592C393.919 106.249 393.169 105.649 392.992 105.474C392.845 105.328 392.712 105.17 392.568 105.023C391.898 104.336 393.324 106.203 392.869 105.401C392.626 104.998 392.403 104.584 392.202 104.159L392.776 105.518C392.515 104.871 392.33 104.196 392.224 103.507L392.427 105.019C392.318 104.162 392.318 103.294 392.425 102.436L392.221 103.949C392.36 102.991 392.614 102.054 392.976 101.157L392.402 102.516C392.655 101.913 392.954 101.33 393.296 100.772C393.454 100.484 393.639 100.212 393.849 99.9593C393.886 99.9714 392.886 101.107 393.417 100.534C393.556 100.384 393.685 100.226 393.826 100.077C394.051 99.8389 394.291 99.6211 394.528 99.3957C395.321 98.6413 393.419 100.129 394.333 99.5316C394.996 99.0958 395.694 98.7154 396.419 98.3941L395.06 98.9678C396.275 98.4688 397.548 98.1272 398.85 97.9512L397.337 98.1545C398.967 97.967 400.614 97.9865 402.239 98.2125L400.726 98.0093C402.784 98.3212 404.795 98.8869 406.713 99.6935L405.354 99.1199C409.443 100.875 413.065 103.482 416.68 106.037C420.171 108.566 423.851 110.825 427.685 112.795C435.934 116.896 444.813 119.582 453.952 120.741C467.059 122.346 480.359 120.635 492.632 115.763C504.905 110.891 515.758 103.015 524.195 92.8579C525.225 91.766 525.818 90.3344 525.862 88.8344C525.851 87.3274 525.253 85.8841 524.195 84.8109C522.108 82.8946 518.164 82.3535 516.148 84.8109C514.238 87.1435 512.184 89.3548 509.998 91.4318C508.977 92.3999 507.93 93.3381 506.855 94.2464C506.241 94.7653 505.619 95.2739 504.988 95.7723C504.69 96.0081 503.76 96.6357 505.188 95.6225C504.86 95.8548 504.547 96.1083 504.224 96.3469C499.446 99.8692 494.268 102.814 488.798 105.121L490.157 104.547C484.288 107.009 478.124 108.698 471.819 109.572L473.332 109.368C466.846 110.221 460.276 110.212 453.793 109.339L455.306 109.543C448.824 108.652 442.485 106.926 436.447 104.406L437.807 104.98C431.98 102.402 426.451 99.1988 421.316 95.4272C418.643 93.4482 415.825 91.6744 412.884 90.1209C409.459 88.3714 405.75 87.2441 401.931 86.7914C394.77 85.9487 387.472 88.7379 383.536 94.9247C379.912 100.618 379.959 108.766 385.033 113.607C390.258 118.594 398.172 118.552 404.33 115.432C410.261 112.428 413.824 106.188 416.329 100.303C421.967 87.0601 426.958 73.5112 431.609 59.8934C436.21 46.4207 440.382 32.8117 444.126 19.0663C444.589 17.364 445.046 15.6598 445.497 13.9538C446.256 11.0794 444.54 7.64162 441.522 6.95434C440.068 6.57997 438.525 6.78517 437.219 7.52663C435.913 8.2681 434.947 9.48776 434.523 10.9284Z" fill="currentColor"/>
<path d="M491.297 9.34903L489.249 82.0253L487.212 154.323L486.06 195.204C486.072 196.709 486.676 198.149 487.74 199.213C488.805 200.277 490.245 200.881 491.75 200.894C493.25 200.865 494.68 200.256 495.741 199.195C496.802 198.134 497.411 196.704 497.44 195.204L499.488 122.527L501.525 50.2294L502.677 9.34903C502.665 7.84389 502.061 6.40402 500.997 5.33969C499.932 4.27535 498.492 3.67174 496.987 3.65894C495.487 3.68793 494.057 4.29673 492.996 5.35761C491.935 6.41849 491.326 7.849 491.297 9.34903Z" fill="currentColor"/>
<path d="M283.555 150.79C281.33 160.713 276.002 169.668 268.343 176.357C267.782 176.843 267.22 177.313 266.636 177.776C265.217 177.905 263.809 178.037 262.41 178.171C261.249 178.277 260.104 178.391 258.966 178.497L258.761 178.52L258.617 177.275L258.04 172.238C255.803 168.586 254.417 164.478 253.983 160.217C253.55 155.957 254.081 151.654 255.536 147.626C257.539 142.224 261.166 137.452 264.732 132.718C269.656 126.178 274.443 119.714 274.617 111.741C277.04 114.841 279.054 118.24 280.611 121.854C279.142 122.545 277.823 123.517 276.726 124.714C276.415 125.055 276.104 125.534 276.317 125.943C276.499 126.292 276.954 126.376 277.349 126.421C278.297 126.52 279.253 126.618 280.201 126.717C280.96 126.8 281.719 126.876 282.477 126.96C283.395 129.972 284.018 133.067 284.336 136.201C284.847 141.074 284.583 145.999 283.555 150.79Z" fill="currentColor"/>
<path d="M308.743 130.905C304.266 134.16 301.649 138.841 299.616 144C297.532 144.667 295.657 145.864 294.176 147.475C293.865 147.816 293.554 148.294 293.766 148.704C293.948 149.053 294.404 149.136 294.798 149.182C295.746 149.28 296.702 149.379 297.651 149.478C295.617 155.577 293.751 161.89 290.155 167.041C287.763 170.442 284.646 173.269 281.028 175.318C280.042 175.88 279.023 176.385 277.978 176.828C274.124 177.124 270.343 177.44 266.636 177.776C265.217 177.905 263.809 178.037 262.41 178.171C261.249 178.277 260.104 178.391 258.966 178.497C258.958 178.08 258.958 177.663 258.966 177.245C259.206 166.13 263.295 155.442 270.536 147.004C270.877 146.61 271.226 146.223 271.583 145.836C275.251 141.918 279.565 138.659 284.336 136.201C291.854 132.292 300.28 130.463 308.743 130.905Z" fill="#FACD23"/>
<path d="M263.723 174.279L262.85 176.858L262.41 178.171C261.249 178.277 260.104 178.391 258.966 178.497L258.761 178.52C257.502 178.649 256.25 178.778 254.998 178.907C254.672 178.527 254.345 178.141 254.027 177.746C246.108 168.157 242.306 155.822 243.454 143.439C244.601 131.055 250.603 119.629 260.149 111.657C259.148 116.9 260.316 121.922 262.236 126.907C262.031 126.99 261.834 127.074 261.644 127.165C260.175 127.856 258.856 128.828 257.759 130.025C257.448 130.366 257.137 130.844 257.35 131.254C257.532 131.603 257.987 131.687 258.382 131.732C259.33 131.831 260.286 131.929 261.234 132.028C261.993 132.111 262.752 132.187 263.51 132.271C263.867 132.309 264.223 132.347 264.58 132.385C264.633 132.498 264.679 132.605 264.732 132.718C266.894 137.407 269.223 142.118 270.536 147.004C270.865 148.23 271.123 149.474 271.309 150.729C271.894 154.972 271.515 159.293 270.202 163.369C268.888 167.446 266.674 171.175 263.723 174.279Z" fill="#FACD23"/>
<path d="M340.09 64.2404C333.559 51.5005 323.44 40.7813 311.539 32.9042C299.6 25.0379 285.9 20.2475 271.661 18.9597C269.794 18.7901 267.923 18.6908 266.048 18.6617C263.831 18.6285 230.491 28.2452 219.323 36.0978C208.16 43.8547 198.978 54.1271 192.516 66.0861C186.066 78.1106 182.893 91.6207 183.317 105.259C183.87 118.98 187.694 132.37 194.471 144.313C201.156 156.217 210.648 166.308 222.121 173.709C233.757 181.134 245.447 200.821 259.186 201.516C273.028 202.216 288.815 183.645 301.44 178.006C314.066 172.321 324.981 163.426 333.097 152.207C340.984 141.214 346.086 128.471 347.966 115.072C349.919 101.352 349.009 87.2033 344.324 74.0906C343.121 70.7213 341.707 67.4313 340.09 64.2404C338.74 61.5811 334.782 60.6019 332.305 62.1991C331.029 62.9851 330.104 64.2327 329.724 65.6826C329.344 67.1325 329.537 68.6731 330.264 69.9842C331.056 71.546 331.794 73.1335 332.475 74.7469L331.902 73.3876C334.481 79.5899 336.235 86.104 337.119 92.763L336.915 91.2503C337.855 98.4746 337.838 105.791 336.865 113.011L337.069 111.498C336.085 118.718 334.158 125.777 331.337 132.494L331.911 131.135C330.459 134.563 328.768 137.883 326.849 141.073C325.876 142.684 324.844 144.257 323.753 145.793C323.274 146.467 322.78 147.129 322.282 147.789C321.633 148.65 323.167 146.664 322.496 147.509C322.382 147.653 322.268 147.797 322.154 147.941C321.809 148.371 321.459 148.798 321.105 149.221C318.74 152.043 316.158 154.677 313.384 157.099C312.693 157.702 311.991 158.291 311.277 158.867C310.921 159.154 310.57 159.454 310.199 159.721C310.213 159.711 311.397 158.811 310.696 159.333C310.476 159.497 310.258 159.664 310.037 159.828C308.565 160.918 307.054 161.953 305.504 162.932C301.936 165.18 298.192 167.137 294.309 168.784L295.668 168.21C288.971 171.03 281.932 172.956 274.731 173.939L276.244 173.736C269.048 174.709 261.754 174.722 254.554 173.775L256.067 173.978C249.523 173.099 243.123 171.369 237.028 168.831L238.387 169.404C234.856 167.914 231.453 166.14 228.208 164.1C226.603 163.089 225.039 162.015 223.517 160.878C223.3 160.716 223.085 160.551 222.868 160.388C222.174 159.864 223.367 160.775 223.377 160.781C222.973 160.491 222.584 160.181 222.212 159.852C221.477 159.253 220.753 158.641 220.041 158.015C217.192 155.505 214.531 152.789 212.08 149.889C211.467 149.164 210.866 148.428 210.279 147.681C210.025 147.358 209.561 146.702 210.586 148.083C210.451 147.901 210.311 147.723 210.175 147.542C209.848 147.108 209.525 146.672 209.207 146.231C208.093 144.69 207.034 143.11 206.03 141.493C203.761 137.831 201.781 133.999 200.108 130.03L200.682 131.39C197.944 124.875 196.071 118.03 195.113 111.029L195.316 112.542C194.451 106.088 194.439 99.5488 195.279 93.0921L195.076 94.6047C195.938 88.3521 197.62 82.2404 200.079 76.4274L199.506 77.7867C201.053 74.1476 202.878 70.6331 204.964 67.2742C206.009 65.5933 207.116 63.9534 208.286 62.3544C208.551 61.9911 208.82 61.63 209.092 61.2711C209.337 60.9465 210.013 60.1382 208.86 61.5658C208.973 61.4258 209.082 61.2818 209.193 61.1406C209.835 60.3275 210.493 59.5271 211.166 58.7395C213.713 55.7573 216.473 52.9629 219.422 50.3782C220.168 49.7249 220.925 49.0853 221.695 48.4595C222.044 48.1751 222.396 47.8937 222.75 47.6152C222.891 47.5038 223.035 47.3946 223.176 47.2824C221.66 48.4883 222.755 47.6106 223.099 47.3529C224.684 46.1651 226.311 45.0369 227.981 43.9681C231.693 41.5943 235.598 39.5366 239.655 37.8168L238.295 38.3905C244.183 35.9184 270.267 30.0835 275.011 30.7204L273.498 30.5171C280.471 31.4906 287.287 33.3736 293.77 36.118L292.411 35.5444C295.696 36.9395 298.89 38.5434 301.97 40.3462C303.51 41.2486 305.019 42.2001 306.498 43.2008C307.197 43.6745 307.89 44.1588 308.575 44.6536C308.917 44.9011 309.258 45.1511 309.596 45.4039C309.785 45.5442 309.971 45.6865 310.159 45.8272C310.947 46.4182 309.073 44.9713 309.899 45.625C312.666 47.7982 315.293 50.1429 317.765 52.6452C318.98 53.8819 320.152 55.1578 321.283 56.4729C321.863 57.1477 322.431 57.8324 322.987 58.527C323.264 58.8722 324.205 60.121 323.052 58.5912C323.333 58.9651 323.619 59.3365 323.897 59.7131C326.294 62.9584 328.424 66.3934 330.264 69.9842C331.624 72.6379 335.564 73.6273 338.049 72.0256C339.325 71.24 340.25 69.9924 340.63 68.5423C341.011 67.0922 340.817 65.5514 340.09 64.2404Z" fill="currentColor"/>
<path d="M273.788 157.099C273.201 157.126 272.62 156.972 272.123 156.657C271.626 156.343 271.238 155.883 271.011 155.341C270.784 154.798 270.73 154.199 270.855 153.625C270.98 153.05 271.278 152.528 271.71 152.129C271.782 151.841 271.834 151.635 271.907 151.348C271.881 151.285 271.855 151.223 271.829 151.16C269.188 144.865 252.342 162.414 251.614 168.33C251.293 170.946 251.428 173.597 252.013 176.166C246.557 164.262 243.723 151.324 243.705 138.23C243.704 134.944 243.886 131.66 244.252 128.395C244.554 125.717 244.973 123.059 245.509 120.42C248.433 106.102 254.713 92.6807 263.832 81.26C269.047 81.5511 273.617 80.7566 274.059 70.6496C274.137 68.8518 275.471 67.2951 275.764 65.524C275.266 65.5893 274.76 65.6301 274.263 65.6627C274.107 65.6709 273.944 65.6791 273.789 65.6872L273.731 65.6898C273.184 65.7144 272.641 65.5803 272.168 65.3036C271.696 65.0269 271.313 64.6195 271.066 64.1304C270.82 63.6413 270.72 63.0914 270.779 62.5468C270.837 62.0023 271.052 61.4863 271.397 61.061C271.612 60.7965 271.827 60.5321 272.043 60.2678C272.369 59.8597 272.704 59.4597 273.03 59.0517C273.068 59.0129 273.103 58.972 273.136 58.9292C273.512 58.4639 273.887 58.0069 274.263 57.5417C273.577 56.478 272.656 55.587 271.569 54.9381C267.807 52.7345 262.616 54.2607 259.898 57.6641C257.172 61.0676 256.658 65.8423 257.604 70.0946C258.535 73.7129 260.075 77.1464 262.159 80.2479C261.955 80.5091 261.742 80.7621 261.538 81.0233C257.808 85.8196 254.557 90.9699 251.832 96.4003C252.603 90.3774 243.174 68.6266 239.528 64.0194C235.148 58.4856 226.167 60.9007 225.395 67.9157C225.388 67.9836 225.38 68.0515 225.373 68.1194C225.915 68.425 226.445 68.7493 226.964 69.0924C227.615 69.5278 228.12 70.1498 228.412 70.8771C228.704 71.6044 228.77 72.4029 228.601 73.168C228.431 73.9332 228.034 74.6293 227.462 75.1652C226.89 75.701 226.17 76.0517 225.395 76.1711L225.316 76.1833C218.066 86.5345 241.307 113.476 247.125 107.427C244.386 115.186 242.669 123.269 242.015 131.472C241.645 136.311 241.667 141.172 242.081 146.008L242.056 145.836C240.763 135.304 218.589 119.645 212.114 120.949C208.383 121.7 204.709 121.53 205.276 125.292C205.285 125.352 205.294 125.413 205.303 125.473C206.308 125.882 207.287 126.354 208.233 126.885C208.775 127.19 209.305 127.514 209.824 127.857C210.476 128.293 210.981 128.915 211.273 129.642C211.565 130.369 211.63 131.168 211.461 131.933C211.291 132.698 210.894 133.395 210.323 133.93C209.751 134.466 209.03 134.817 208.256 134.936L208.176 134.948C208.119 134.957 208.07 134.965 208.013 134.973C204.713 146.328 229.186 164.653 244.064 158.822H244.072C245.546 165.229 247.683 171.465 250.446 177.431H273.218C273.299 177.178 273.373 176.916 273.446 176.663C271.339 176.796 269.223 176.67 267.145 176.288C268.835 174.215 270.524 172.126 272.214 170.052C272.252 170.014 272.287 169.973 272.32 169.93C273.177 168.869 274.042 167.816 274.899 166.755L274.9 166.754C274.945 163.501 274.572 160.257 273.789 157.1L273.788 157.099ZM247.712 105.803L247.724 105.786L247.712 105.819V105.803ZM242.668 151.272L242.472 150.831C242.48 150.513 242.48 150.195 242.472 149.868C242.472 149.778 242.456 149.689 242.456 149.599C242.529 150.162 242.595 150.725 242.676 151.288L242.668 151.272Z" fill="currentColor"/>
<path d="M17.9256 109.715C22.5346 109.715 26.271 105.979 26.271 101.37C26.271 96.7606 22.5346 93.0242 17.9256 93.0242C13.3165 93.0242 9.58008 96.7606 9.58008 101.37C9.58008 105.979 13.3165 109.715 17.9256 109.715Z" fill="currentColor"/>
<path d="M118.072 200.757C122.681 200.757 126.418 197.02 126.418 192.411C126.418 187.802 122.681 184.066 118.072 184.066C113.463 184.066 109.727 187.802 109.727 192.411C109.727 197.02 113.463 200.757 118.072 200.757Z" fill="currentColor"/>
<path d="M498.17 200.757C502.779 200.757 506.515 197.02 506.515 192.411C506.515 187.802 502.779 184.066 498.17 184.066C493.561 184.066 489.824 187.802 489.824 192.411C489.824 197.02 493.561 200.757 498.17 200.757Z" fill="currentColor"/>
<path d="M518.654 94.5415C523.263 94.5415 527 90.8051 527 86.1961C527 81.587 523.263 77.8506 518.654 77.8506C514.045 77.8506 510.309 81.587 510.309 86.1961C510.309 90.8051 514.045 94.5415 518.654 94.5415Z" fill="currentColor"/>
<path d="M494.377 17.1563C498.986 17.1563 502.722 13.4199 502.722 8.81081C502.722 4.20173 498.986 0.465332 494.377 0.465332C489.768 0.465332 486.031 4.20173 486.031 8.81081C486.031 13.4199 489.768 17.1563 494.377 17.1563Z" fill="currentColor"/>
<path d="M146.143 86.1962C146.138 88.328 145.313 90.3762 143.84 91.917C142.367 93.4579 140.358 94.3734 138.229 94.4742C136.099 94.5749 134.013 93.8532 132.401 92.4583C130.789 91.0635 129.775 89.1022 129.568 86.9805C129.362 84.8588 129.979 82.7389 131.293 81.0597C132.606 79.3804 134.514 78.2702 136.623 77.9589C138.732 77.6477 140.88 78.159 142.622 79.3873C144.365 80.6155 145.568 82.4666 145.984 84.5574C146.091 85.0971 146.144 85.646 146.143 86.1962Z" fill="currentColor"/>
<path d="M313.053 41.4341C317.662 41.4341 321.398 37.6977 321.398 33.0886C321.398 28.4796 317.662 24.7432 313.053 24.7432C308.443 24.7432 304.707 28.4796 304.707 33.0886C304.707 37.6977 308.443 41.4341 313.053 41.4341Z" fill="currentColor"/>
<path d="M230.356 33.0886C230.351 35.2203 229.526 37.2685 228.053 38.8094C226.58 40.3502 224.571 41.2658 222.442 41.3665C220.312 41.4673 218.226 40.7456 216.614 39.3507C215.002 37.9558 213.987 35.9946 213.781 33.8729C213.575 31.7511 214.192 29.6313 215.505 27.952C216.819 26.2727 218.727 25.1626 220.836 24.8513C222.945 24.54 225.093 25.0514 226.835 26.2796C228.577 27.5079 229.781 29.3589 230.196 31.4498C230.303 31.9894 230.357 32.5384 230.356 33.0886Z" fill="currentColor"/>
<path d="M122.623 8.81071C122.618 10.9425 121.794 12.9907 120.321 14.5315C118.848 16.0724 116.839 16.9879 114.709 17.0887C112.58 17.1895 110.493 16.4677 108.881 15.0729C107.269 13.678 106.255 11.7168 106.049 9.59502C105.842 7.47327 106.46 5.35342 107.773 3.67415C109.086 1.99489 110.995 0.884741 113.104 0.573448C115.212 0.262154 117.36 0.773542 119.103 2.00178C120.845 3.23003 122.048 5.0811 122.464 7.17196C122.571 7.71161 122.624 8.26054 122.623 8.81071Z" fill="currentColor"/>
<path d="M400.301 112.75C404.91 112.75 408.646 109.014 408.646 104.405C408.646 99.7955 404.91 96.0591 400.301 96.0591C395.691 96.0591 391.955 99.7955 391.955 104.405C391.955 109.014 395.691 112.75 400.301 112.75Z" fill="currentColor"/>
<path d="M269.049 36.882C275.753 36.882 281.188 31.4472 281.188 24.7431C281.188 18.039 275.753 12.6042 269.049 12.6042C262.345 12.6042 256.91 18.039 256.91 24.7431C256.91 31.4472 262.345 36.882 269.049 36.882Z" fill="currentColor"/>
</svg>
