<svg width="32" height="34" viewBox="0 0 32 34" fill="none" xmlns="http://www.w3.org/2000/svg">
<path d="M4 12.6089C6.16096 15.2084 10.7224 17.0002 16 17.0002C21.2776 17.0002 25.8391 15.2084 28 12.6089M4 12.6089V22.3835C4 23.9703 4 24.7638 4.29065 25.3698C4.54631 25.9029 4.95425 26.3364 5.45603 26.608C6.02645 26.9168 6.77319 26.9168 8.26667 26.9168H23.7333C25.2268 26.9168 25.9736 26.9168 26.544 26.608C27.0457 26.3364 27.4537 25.9029 27.7093 25.3698C28 24.7638 28 23.9703 28 22.3835V12.6089M4 12.6089V11.6168C4 10.03 4 9.2366 4.29065 8.63052C4.54631 8.09739 4.95425 7.66395 5.45603 7.39232C6.02645 7.0835 6.77319 7.0835 8.26667 7.0835H23.7333C25.2268 7.0835 25.9736 7.0835 26.544 7.39232C27.0457 7.66395 27.4537 8.09739 27.7093 8.63052C28 9.2366 28 10.03 28 11.6168V12.6089" stroke="white" stroke-width="2.5" stroke-linecap="round" stroke-linejoin="round"/>
</svg>
